<svg xmlns="http://www.w3.org/2000/svg"  width="345" height="285" >
<g>
<line x1="40" y1="40"  x2="40" y2="240" style=" stroke: black;"/>
<line x1="40" y1="240"  x2="340" y2="240" style=" stroke: black;"/>
<line x1="37" y1="220"  x2="40" y2="220" style=" stroke: black;"/>
<text x="8" y="220" style="font-family: monospace; font-size: 8px;">0.02</text>
<line x1="37" y1="200"  x2="40" y2="200" style=" stroke: black;"/>
<text x="8" y="200" style="font-family: monospace; font-size: 8px;">0.04</text>
<line x1="37" y1="180"  x2="40" y2="180" style=" stroke: black;"/>
<text x="8" y="180" style="font-family: monospace; font-size: 8px;">0.05</text>
<line x1="37" y1="160"  x2="40" y2="160" style=" stroke: black;"/>
<text x="8" y="160" style="font-family: monospace; font-size: 8px;">0.07</text>
<line x1="37" y1="140"  x2="40" y2="140" style=" stroke: black;"/>
<text x="8" y="140" style="font-family: monospace; font-size: 8px;">0.09</text>
<line x1="37" y1="120"  x2="40" y2="120" style=" stroke: black;"/>
<text x="8" y="120" style="font-family: monospace; font-size: 8px;">0.11</text>
<line x1="37" y1="100"  x2="40" y2="100" style=" stroke: black;"/>
<text x="8" y="100" style="font-family: monospace; font-size: 8px;">0.13</text>
<line x1="37" y1="80"  x2="40" y2="80" style=" stroke: black;"/>
<text x="8" y="80" style="font-family: monospace; font-size: 8px;">0.15</text>
<line x1="37" y1="60"  x2="40" y2="60" style=" stroke: black;"/>
<text x="8" y="60" style="font-family: monospace; font-size: 8px;">0.16</text>
<line x1="37" y1="40"  x2="40" y2="40" style=" stroke: black;"/>
<text x="8" y="40" style="font-family: monospace; font-size: 8px;">0.18</text>
<line x1="70" y1="240"  x2="70" y2="245" style=" stroke: black;"/>
<text x="70" y="245" transform="rotate(90,70,245)" style="font-family: monospace; font-size: 8px;">214</text>
<line x1="100" y1="240"  x2="100" y2="245" style=" stroke: black;"/>
<text x="100" y="245" transform="rotate(90,100,245)" style="font-family: monospace; font-size: 8px;">428</text>
<line x1="130" y1="240"  x2="130" y2="245" style=" stroke: black;"/>
<text x="130" y="245" transform="rotate(90,130,245)" style="font-family: monospace; font-size: 8px;">642</text>
<line x1="160" y1="240"  x2="160" y2="245" style=" stroke: black;"/>
<text x="160" y="245" transform="rotate(90,160,245)" style="font-family: monospace; font-size: 8px;">856</text>
<line x1="190" y1="240"  x2="190" y2="245" style=" stroke: black;"/>
<text x="190" y="245" transform="rotate(90,190,245)" style="font-family: monospace; font-size: 8px;">1070</text>
<line x1="220" y1="240"  x2="220" y2="245" style=" stroke: black;"/>
<text x="220" y="245" transform="rotate(90,220,245)" style="font-family: monospace; font-size: 8px;">1284</text>
<line x1="250" y1="240"  x2="250" y2="245" style=" stroke: black;"/>
<text x="250" y="245" transform="rotate(90,250,245)" style="font-family: monospace; font-size: 8px;">1498</text>
<line x1="280" y1="240"  x2="280" y2="245" style=" stroke: black;"/>
<text x="280" y="245" transform="rotate(90,280,245)" style="font-family: monospace; font-size: 8px;">1712</text>
<line x1="310" y1="240"  x2="310" y2="245" style=" stroke: black;"/>
<text x="310" y="245" transform="rotate(90,310,245)" style="font-family: monospace; font-size: 8px;">1926</text>
<line x1="340" y1="240"  x2="340" y2="245" style=" stroke: black;"/>
<text x="340" y="245" transform="rotate(90,340,245)" style="font-family: monospace; font-size: 8px;">2140</text>
<text x="5" y="8" style="font-family: monospace; font-size: 10px;">Dist. Dt</text>
<text x="320" y="230" style="font-family: monospace; font-size: 10px;">Rank</text>
<polyline style="stroke: #00a5eb; stroke-width:1;fill: none;"  points="40 240,41 240,42 240,43 240,44 240,44 238,45 238,46 238,47 238,48 238,48 237,49 237,49 236,50 236,51 236,51 235,52 235,52 234,53 234,54 233,54 232,55 232,56 232,56 231,57 231,57 230,58 230,58 229,59 229,59 228,60 228,60 227,61 227,62 227,62 226,62 225,63 225,63 224,64 224,64 223,65 223,65 222,65 221,66 221,67 220,67 219,68 219,68 218,69 218,69 217,70 217,71 217,71 216,72 216,73 216,73 215,74 215,74 214,75 214,76 214,77 214,77 213,78 213,79 213,79 212,80 212,81 212,82 212,83 211,83 210,84 210,85 210,86 210,87 210,88 210,88 209,89 209,89 208,90 208,91 208,92 208,92 207,93 207,94 207,95 207,95 206,96 206,97 206,98 206,99 206,99 205,100 205,101 205,102 205,103 205,104 205,105 205,105 204,106 204,107 204,108 204,108 203,109 203,110 203,111 203,112 203,113 203,113 202,114 202,115 202,116 202,117 202,117 201,118 201,119 201,120 201,121 201,121 200,122 200,123 200,124 200,125 200,125 199,126 199,127 199,127 198,128 198,129 198,130 198,130 197,131 197,132 197,133 197,134 197,134 196,135 196,136 196,137 196,137 195,138 195,139 195,139 194,140 194,141 194,142 194,143 193,144 193,145 193,146 193,146 192,147 192,148 192,149 192,150 192,151 192,151 191,152 191,153 191,154 191,155 190,156 190,157 190,158 190,159 190,160 190,160 189,161 189,162 189,162 188,163 188,164 188,165 188,166 188,166 187,167 187,168 187,169 187,170 187,170 186,171 186,172 186,173 186,174 186,175 186,176 186,176 185,177 185,178 185,179 184,180 184,181 184,182 184,182 183,183 183,184 183,184 182,185 182,186 182,187 182,187 181,188 181,189 181,189 180,190 180,191 180,191 179,192 179,193 179,193 178,194 178,195 178,195 177,196 177,197 177,198 177,199 176,200 176,200 175,201 175,202 175,203 175,203 174,204 174,205 174,205 173,206 173,207 173,208 173,209 173,209 172,210 172,211 172,211 171,212 171,212 170,213 170,214 170,214 169,215 169,216 169,217 169,218 169,218 168,219 168,220 168,220 167,221 167,222 167,223 167,223 166,224 166,225 166,226 166,227 166,227 165,228 165,229 165,230 165,231 164,232 164,233 163,234 163,235 163,236 163,237 162,238 162,239 162,240 162,241 162,241 161,242 161,243 161,244 161,245 161,246 161,246 160,247 160,248 160,248 159,249 159,250 159,251 159,252 159,253 159,253 158,254 158,255 157,256 157,257 157,258 157,259 157,259 156,260 156,260 155,261 155,262 155,262 154,263 154,264 154,264 153,265 153,266 153,267 153,267 152,268 152,269 152,270 152,270 151,271 151,271 150,272 150,273 150,273 149,273 148,274 148,275 148,275 147,276 146,277 146,277 145,278 145,278 144,279 144,279 142,279 141,280 140,280 139,280 138,281 138,282 138,282 137,282 136,283 136,283 135,284 134,285 134,285 132,285 130,286 130,286 128,286 127,286 126,287 126,287 124,288 123,288 122,289 122,289 120,289 119,289 118,290 118,290 117,290 116,290 115,291 115,291 114,292 113,293 113,294 113,294 112,294 111,295 111,296 111,296 110,296 109,297 109,298 109,299 109,299 107,300 107,301 106,301 105,302 105,302 104,303 104,304 103,304 102,305 102,305 101,305 100,306 100,307 100,307 99,307 98,308 98,309 98,310 97,311 97,311 96,312 96,313 96,313 95,314 95,314 94,315 94,315 93,316 93,317 92,318 92,319 91,320 91,320 90,321 90,322 90,322 89,323 89,324 88,324 87,325 87,326 87,326 86,327 86,327 85,328 85,329 85,329 84,330 84,330 83,331 83,331 82,332 82,333 82,333 81,333 80,334 80,335 80,335 78,336 78,336 77,337 77,337 76,337 75,337 74,337 73,338 73,338 72,338 70,338 66,338 65,338 63,338 62,339 61,339 55,339 50,339 48,339 45,339 39"/><line id="CutDis10" visibility="hidden" x1="40" y1="232"  x2="340" y2="232" style=" stroke: red;"/>
<line id="CutDis9" visibility="hidden" x1="40" y1="129"  x2="340" y2="129" style=" stroke: red;"/>
<line id="CutDis8" visibility="hidden" x1="40" y1="234"  x2="340" y2="234" style=" stroke: red;"/>
<line id="CutDis7" visibility="hidden" x1="40" y1="153"  x2="340" y2="153" style=" stroke: red;"/>
<line id="CutDis6" visibility="hidden" x1="40" y1="232"  x2="340" y2="232" style=" stroke: red;"/>
<line id="CutDis5" visibility="hidden" x1="40" y1="230"  x2="340" y2="230" style=" stroke: red;"/>
<line id="CutDis4" visibility="hidden" x1="40" y1="228"  x2="340" y2="228" style=" stroke: red;"/>
<line id="CutDis3" visibility="hidden" x1="40" y1="227"  x2="340" y2="227" style=" stroke: red;"/>
<line id="CutDis2" visibility="hidden" x1="40" y1="236"  x2="340" y2="236" style=" stroke: red;"/>
<line id="CutDis1" visibility="hidden" x1="40" y1="226"  x2="340" y2="226" style=" stroke: red;"/>

</g>
</svg>
